<?xml version="1.0" encoding="UTF-8"?>
<!DOCTYPE svg PUBLIC "-//W3C//DTD SVG 1.1//EN" "http://www.w3.org/Graphics/SVG/1.1/DTD/svg11.dtd">
<svg xmlns="http://www.w3.org/2000/svg" version="1.1" width="687px" height="730px" style="shape-rendering:geometricPrecision; text-rendering:geometricPrecision; image-rendering:optimizeQuality; fill-rule:evenodd; clip-rule:evenodd" xmlns:xlink="http://www.w3.org/1999/xlink">
<g><path style="opacity:1" fill="#fefffe" d="M -0.5,-0.5 C 228.5,-0.5 457.5,-0.5 686.5,-0.5C 686.5,242.833 686.5,486.167 686.5,729.5C 457.5,729.5 228.5,729.5 -0.5,729.5C -0.5,486.167 -0.5,242.833 -0.5,-0.5 Z"/></g>
<g><path style="opacity:1" fill="#000000" d="M 62.5,85.5 C 81.8333,85.5 101.167,85.5 120.5,85.5C 120.5,87.8333 120.5,90.1667 120.5,92.5C 282.833,92.5 445.167,92.5 607.5,92.5C 607.5,108.5 607.5,124.5 607.5,140.5C 445.167,140.5 282.833,140.5 120.5,140.5C 120.5,204.167 120.5,267.833 120.5,331.5C 265.5,331.5 410.5,331.5 555.5,331.5C 555.5,330.167 555.5,328.833 555.5,327.5C 572.833,327.5 590.167,327.5 607.5,327.5C 607.5,427.5 607.5,527.5 607.5,627.5C 590.167,627.5 572.833,627.5 555.5,627.5C 555.5,624.833 555.5,622.167 555.5,619.5C 391.5,619.5 227.5,619.5 63.5,619.5C 63.5,603.5 63.5,587.5 63.5,571.5C 227.5,571.5 391.5,571.5 555.5,571.5C 555.5,507.5 555.5,443.5 555.5,379.5C 410.5,379.5 265.5,379.5 120.5,379.5C 120.5,381.5 120.5,383.5 120.5,385.5C 101.167,385.5 81.8333,385.5 62.5,385.5C 62.5,285.5 62.5,185.5 62.5,85.5 Z"/></g>
<g><path style="opacity:1" fill="#000000" d="M 226.5,185.5 C 333.153,187.326 439.82,187.992 546.5,187.5C 546.5,201.833 546.5,216.167 546.5,230.5C 452.167,230.5 357.833,230.5 263.5,230.5C 263.5,251.167 263.5,271.833 263.5,292.5C 251.167,292.5 238.833,292.5 226.5,292.5C 226.015,256.791 226.015,221.124 226.5,185.5 Z"/></g>
<g><path style="opacity:1" fill="#000000" d="M 224.5,396.5 C 236.833,396.5 249.167,396.5 261.5,396.5C 261.5,417.167 261.5,437.833 261.5,458.5C 355.833,458.5 450.167,458.5 544.5,458.5C 544.5,472.833 544.5,487.167 544.5,501.5C 443.986,500.921 343.486,501.587 243,503.5C 236.833,503.167 230.667,502.833 224.5,502.5C 224.026,467.209 224.026,431.876 224.5,396.5 Z"/></g>
</svg>
